<?xml version="1.0" encoding="UTF-8" standalone="no"?>
<svg
   xmlns:dc="http://purl.org/dc/elements/1.1/"
   xmlns:cc="http://creativecommons.org/ns#"
   xmlns:rdf="http://www.w3.org/1999/02/22-rdf-syntax-ns#"
   xmlns:svg="http://www.w3.org/2000/svg"
   xmlns="http://www.w3.org/2000/svg"
   xmlns:sodipodi="http://sodipodi.sourceforge.net/DTD/sodipodi-0.dtd"
   xmlns:inkscape="http://www.inkscape.org/namespaces/inkscape"
   version="1.1"
   id="dat-data-logo"
   x="0px"
   y="0px"
   width="240px"
   height="240px"
   viewBox="0 0 240 240"
   enable-background="new 0 0 240 240"
   xml:space="preserve"
   sodipodi:docname="datr-data-logo.svg"
   inkscape:version="0.92.2 (5c3e80d, 2017-08-06)"
   inkscape:export-filename="/home/chjh/dat/datr/datr-data-logo.svg.png"
   inkscape:export-xdpi="96"
   inkscape:export-ydpi="96"><metadata
     id="metadata27"><rdf:RDF><cc:Work
         rdf:about=""><dc:format>image/svg+xml</dc:format><dc:type
           rdf:resource="http://purl.org/dc/dcmitype/StillImage" /><dc:title></dc:title></cc:Work></rdf:RDF></metadata><defs
     id="defs25" /><sodipodi:namedview
     pagecolor="#ffffff"
     bordercolor="#666666"
     borderopacity="1"
     objecttolerance="10"
     gridtolerance="10"
     guidetolerance="10"
     inkscape:pageopacity="0"
     inkscape:pageshadow="2"
     inkscape:window-width="1680"
     inkscape:window-height="976"
     id="namedview23"
     showgrid="false"
     inkscape:zoom="1.3906434"
     inkscape:cx="-78.353476"
     inkscape:cy="111.97011"
     inkscape:window-x="508"
     inkscape:window-y="0"
     inkscape:window-maximized="1"
     inkscape:current-layer="g10" /><polygon
     fill="#2aca4b"
     points="224,179.5 119.5,239.5 15,179.5 15,59.5 119.5,-0.5 224,59.5 "
     id="polygon2" /><g
     id="g10"><path
       d="m 52.707,76.498 c 4.863,0 7.782,1.768 10.789,4.598 l -0.53,-6.721 V 59.43 h 13 v 61.992 H 65.353 l -0.884,-4.333 h -0.354 c -3.095,3.095 -7.429,5.394 -11.673,5.394 -10.877,0 -17.952,-8.666 -17.952,-22.993 0,-14.326 8.931,-22.992 18.217,-22.992 z m 3.094,35.374 c 2.831,0 5.041,-1.061 7.164,-3.98 V 89.94 c -2.299,-2.122 -4.864,-2.83 -7.252,-2.83 -4.156,0 -7.87,3.891 -7.87,12.204 0,8.666 2.918,12.558 7.958,12.558 z"
       id="path4"
       inkscape:connector-curvature="0"
       style="fill:#ffffff" /><path
       d="m 109.303,93.212 c -0.265,-3.891 -2.21,-6.367 -6.898,-6.367 -3.713,0 -7.429,1.503 -11.673,3.979 l -4.599,-8.578 c 5.571,-3.36 11.85,-5.748 18.747,-5.748 11.232,0 17.422,6.367 17.422,19.809 v 25.115 h -10.613 l -0.972,-4.51 h -0.265 c -3.713,3.272 -7.87,5.571 -12.823,5.571 -7.96,0 -13,-5.837 -13,-13.265 10e-4,-9.197 7.341,-14.238 24.674,-16.006 z m -7.251,19.19 c 3.007,0 4.953,-1.415 7.251,-3.714 v -7.694 c -9.285,1.238 -12.292,3.891 -12.292,7.251 0,2.83 1.946,4.157 5.041,4.157 z"
       id="path6"
       inkscape:connector-curvature="0"
       style="fill:#ffffff" /><path
       d="m 135.214,87.729 h -6.013 v -9.64 l 6.72,-0.531 1.503,-11.673 h 10.79 v 11.673 h 10.523 v 10.17 h -10.523 v 17.598 c 0,4.952 2.21,6.986 5.66,6.986 1.414,0 3.007,-0.442 4.156,-0.884 l 2.033,9.462 c -2.298,0.707 -5.482,1.592 -9.727,1.592 -10.878,0 -15.123,-6.809 -15.123,-16.979 V 87.729 Z"
       id="path8"
       inkscape:connector-curvature="0"
       style="fill:#ffffff" /><flowRoot
       xml:space="preserve"
       id="flowRoot33"
       style="font-style:normal;font-weight:normal;font-size:40px;line-height:1.25;font-family:sans-serif;text-align:start;letter-spacing:0px;word-spacing:0px;text-anchor:start;fill:#000000;fill-opacity:1;stroke:none"
       transform="translate(-8.6291,-26.561395)"><flowRegion
         id="flowRegion35"
         style="text-align:start;text-anchor:start"><rect
           id="rect37"
           width="183.72792"
           height="126.91968"
           x="166.82925"
           y="60.227089"
           style="text-align:start;text-anchor:start" /></flowRegion><flowPara
         id="flowPara39"
         style="font-style:normal;font-variant:normal;font-weight:normal;font-stretch:normal;font-size:96px;font-family:FreeMono;-inkscape-font-specification:FreeMono;text-align:start;text-anchor:start;fill:#f9f9f9">r</flowPara></flowRoot></g><g
     id="g20"><path
       fill="#FFFFFF"
       d="M63.75,136.841h8.962c11.969,0,17.688,7.547,17.688,19.28c0,11.792-5.719,19.575-17.629,19.575H63.75       V136.841z M72.417,173.396c10.554,0,15.152-7.134,15.152-17.276c0-10.082-4.598-16.981-15.152-16.981h-5.955v34.256H72.417z"
       id="path12" /><path
       fill="#FFFFFF"
       d="M116.516,162.371h-15.388l-4.54,13.325h-2.772l13.738-38.855h2.712l13.679,38.855h-2.888L116.516,162.371z        M115.75,160.071l-2.476-7.252c-1.533-4.599-2.948-8.667-4.304-13.443h-0.236c-1.355,4.776-2.712,8.844-4.304,13.443l-2.476,7.252       H115.75z"
       id="path14" /><path
       fill="#FFFFFF"
       d="M135.44,139.199h-12.382v-2.359h27.416v2.359h-12.322v36.496h-2.712V139.199z"
       id="path16" /><path
       fill="#FFFFFF"
       d="M172.287,162.371h-15.388l-4.54,13.325h-2.772l13.738-38.855h2.712l13.678,38.855h-2.888L172.287,162.371z        M171.521,160.071l-2.477-7.252c-1.532-4.599-2.947-8.667-4.304-13.443h-0.235c-1.356,4.776-2.712,8.844-4.305,13.443l-2.476,7.252       H171.521z"
       id="path18" /></g></svg>